
<svg version="1.0" xmlns="http://www.w3.org/2000/svg"
 width="84.000000pt" height="84.000000pt" viewBox="0 0 84.000000 84.000000"
 preserveAspectRatio="xMidYMid meet">

<g transform="translate(0.000000,84.000000) scale(0.100000,-0.100000)"
fill="#000000" stroke="none">
<path d="M315 816 c-16 -7 -36 -24 -44 -38 -16 -31 -50 -48 -95 -48 -61 0
-101 -72 -72 -128 20 -39 20 -63 -1 -107 -16 -33 -16 -37 1 -72 l17 -36 -45
-46 c-25 -26 -46 -50 -46 -54 0 -4 23 -7 50 -7 l50 0 0 -49 c0 -28 4 -52 8
-55 5 -3 44 21 88 53 61 45 84 56 99 50 11 -4 34 -5 52 -2 27 4 42 -2 91 -40
71 -53 97 -69 106 -60 3 3 6 26 6 50 0 40 2 43 28 43 34 0 72 10 72 19 0 4
-20 27 -45 52 -45 45 -45 47 -30 75 19 36 19 52 0 88 -19 36 -19 71 0 100 33
50 -14 126 -77 126 -39 0 -81 23 -97 54 -8 14 -27 30 -44 36 -36 12 -35 12
-72 -4z m109 -61 c37 -38 50 -45 82 -45 67 0 105 -58 69 -106 -19 -25 -19 -66
2 -108 13 -29 14 -40 5 -61 -12 -27 -56 -49 -79 -40 -20 7 -67 -20 -87 -50
-23 -34 -59 -48 -91 -33 -13 6 -27 18 -30 27 -9 27 -56 54 -91 53 -40 -2 -84
31 -84 63 0 12 7 36 15 51 19 36 19 52 0 88 -34 65 -5 116 66 116 35 0 47 6
85 45 29 30 52 45 69 45 17 0 40 -15 69 -45z m-185 -400 c38 -19 47 -45 23
-65 -11 -8 -38 -30 -60 -48 l-41 -33 -3 43 c-3 42 -4 43 -40 46 -21 2 -38 6
-38 10 0 3 12 19 27 34 31 32 85 38 132 13z m361 -20 l34 -35 -42 0 -42 0 0
-40 c0 -22 -2 -40 -5 -40 -9 0 -115 83 -115 90 0 4 11 19 25 34 19 20 33 26
68 26 36 0 48 -6 77 -35z"/>
<path d="M342 697 c-5 -6 -17 -26 -26 -44 -13 -26 -23 -33 -61 -39 -25 -3 -47
-10 -50 -14 -3 -4 10 -24 29 -44 31 -34 33 -40 25 -79 -11 -63 4 -73 63 -37
32 19 32 19 69 -2 53 -30 69 -21 59 34 -8 41 -7 45 27 80 19 20 33 41 29 46
-3 5 -26 13 -51 16 -40 6 -48 12 -65 46 -23 46 -34 54 -48 37z m78 -112 l32
-7 -21 -22 c-12 -13 -21 -36 -21 -54 0 -30 -2 -32 -21 -21 -20 11 -47 9 -80
-5 -13 -6 -15 -1 -11 24 3 23 -2 38 -18 55 -24 26 -21 30 25 37 11 2 26 16 33
32 l14 28 18 -30 c12 -19 30 -33 50 -37z"/>
</g>
</svg>
