<svg width="96" height="96" viewBox="0 0 96 96" fill="none" xmlns="http://www.w3.org/2000/svg">
<rect width="96" height="96" rx="16.3902" fill="#6C35D2"/>
<path d="M16.0558 32.1115H24.3017L33.011 53.3595H33.3816L42.0908 32.1115H50.3368V63.7365H43.8512V43.1525H43.5886L35.4045 63.5821H30.9881L22.8039 43.0752H22.5414V63.7365H16.0558V32.1115Z" fill="#ECEAEF"/>
<path d="M55.4108 63.7365V32.1115H68.0731C70.3997 32.1115 72.3402 32.4564 73.8947 33.1461C75.4492 33.8359 76.6176 34.7933 77.4 36.0183C78.1824 37.2331 78.5736 38.6331 78.5736 40.2185C78.5736 41.4538 78.3265 42.5399 77.8324 43.4767C77.3383 44.4032 76.6588 45.165 75.7941 45.7621C74.9396 46.3489 73.9616 46.7659 72.8601 47.0129V47.3218C74.0646 47.3732 75.1918 47.713 76.2419 48.3409C77.3022 48.9689 78.1618 49.8491 78.8207 50.9815C79.4795 52.1036 79.809 53.4419 79.809 54.9964C79.809 56.6744 79.392 58.1722 78.5582 59.49C77.7346 60.7974 76.5147 61.832 74.8984 62.5938C73.2822 63.3556 71.2902 63.7365 68.9224 63.7365H55.4108ZM62.0971 58.27H67.5481C69.4114 58.27 70.7703 57.9149 71.6248 57.2046C72.4792 56.4839 72.9064 55.5265 72.9064 54.3324C72.9064 53.4573 72.6954 52.6852 72.2733 52.0161C71.8512 51.3469 71.249 50.8219 70.4666 50.441C69.6945 50.0601 68.7732 49.8697 67.7025 49.8697H62.0971V58.27ZM62.0971 45.3452H67.054C67.9702 45.3452 68.7835 45.1856 69.4938 44.8665C70.2144 44.5371 70.7806 44.0738 71.1924 43.4767C71.6145 42.8796 71.8255 42.1642 71.8255 41.3303C71.8255 40.1876 71.4189 39.2662 70.6056 38.5662C69.8026 37.8662 68.6599 37.5162 67.1775 37.5162H62.0971V45.3452Z" fill="#ECEAEF"/>
</svg>
